<svg enable-background="new 0 0 281.7 196.2" height="271.353667" viewBox="45.8 28.2 190.2 139.9" width="368.522752" xmlns="http://www.w3.org/2000/svg" xmlns:xlink="http://www.w3.org/1999/xlink"><linearGradient id="a" gradientUnits="userSpaceOnUse" x1="43.31" x2="255.71" y1="98.12" y2="98.12"><stop offset=".07" stop-color="#f7e08b"/><stop offset=".22" stop-color="#f3dc87"/><stop offset=".37" stop-color="#e8ce7b"/><stop offset=".52" stop-color="#d5b768"/><stop offset=".61" stop-color="#c6a55a"/><stop offset=".85" stop-color="#f7e08b"/><stop offset=".93" stop-color="#e0c473"/><stop offset="1" stop-color="#c6a55a"/></linearGradient><path d="m215.9 129.9 2.9-2s-6.1-13.8-7.4-16.8-2.4-5.2-2.4-5.2c-1.2-2-2.7-3.8-4.4-5.4l1.4-1.8s-3.6-8-5.9-13.4c-1.5-3.4-4-6.2-7-8.3-2.1-1.4-4.4-2.4-6.9-2.9l-10.4-2.6-3.4-7.4c-.8-.2-2.7-.5-5.5-.9l-25.9-35-25.8 34.9c-1.9.3-3.9.5-5.8.9l-3.1 6.6-10.6 2.2c-1.6.3-3.6.8-4.8 1.1-2.4.6-8.4 2.3-9.4 2.7l-2 .6-5.1 11.5 3.4 4.7-13.1 32.3 2.9 2.1-21.8 29.5h69.1l26.1 10.8 26.1-10.8h68.9z" fill="url(#a)"/><g fill="#1b2133"><path d="m209.6 130.5 5.9-3.9-6.3-14.2c-1.2-3-2.1-4.7-2.1-4.7-1.7-2.7-3.9-5.2-6.4-7.1l2.1-2.7s-3.4-7.7-5.1-11.7c-1.9-4.3-5.5-7.5-10-9-4.6-1.4-12.8-3-12.8-3l-2.1 6.1c-1.9-.3-6.9-1.1-6.9-1.1l-1.2 4.5-2.7-5c-9.3-1.3-18.7-1.7-28.1-1.4-9.9.3-19.7 1.3-29.5 2.9l-2.5-6.1c-9.2 1.7-20.5 5.3-20.5 5.3l-3.8 8.4 3.4 4.7-13 31.8 5.8 4-17.4 23.5h59.6l24.8 10 24.8-9.9h59.8zm-127.1-1.8c-.9.2-4.2 1.1-4.3 1.2l-7.4-5.1c1.6-.5 4.9-1.4 9.5-2.5l6.4 5.4c-.5.1-3.3.8-4.2 1zm18.3-3.5-4.1.8-5.5-6c2-.4 4-.7 6.1-1.1l3.4-.5 4.5 6.1c-.4 0-3.3.5-4.4.7zm18.5-2.3c-.9.1-3.7.3-4.3.4l-3.3-6.4c1.9-.2 3.7-.4 5.6-.5l4.3-.3 2.2 6.5c-.6 0-3.6.2-4.5.3zm14.4-.9c-2 0-4 .1-4.2.2l-1.6-6.5c1.7-.1 3.4-.2 5.1-.2h4.8l.4 6.6c0-.1-2.3-.1-4.5-.1zm19.6.4c-.2 0-2.2-.2-4.3-.3s-4.2-.2-4.5-.2l.4-6.4c1.6.1 3.3.1 5.1.2l4.8.3zm11.3 1.3c-2.2-.3-7.2-.8-8.6-.9l1.8-6.4c3.5.3 6.7.6 9.7 1zm15 2c-.1 0-6.5-1.1-8-1.4l3.5-6c3.3.5 6.3 1 9.1 1.6zm9.8 2.1c-.2-.1-.4-.1-.7-.2-1.5-.4-2.9-1-4.2-1.9l5.5-6.5c.1 0 .1.1.2.1 1 .7 2 1.3 3.1 1.8.3.1 3 1.2 3.9 1.4.2.1 13.5 3.8 14.9 4.2l.3.1-6.6 4.3c-1.9-.2-12.3-2.2-16.4-3.3z"/><path d="m110.5 76.6c1.9-.3 3.7-.5 5.6-.7.6-1.7 1.1-3.5 1.7-5.2-.8.1-1.7.2-2.5.3-.4 1-.7 2-1.1 3-.6.1-1.2.2-1.8.2-.4.1-.5-.1-.4-.4.5-1.3 1-2.6 1.5-3.8.1-.3.4-.6.8-.6 1-.1 2-.3 2.9-.4l.9-.8c.2-.5.3-1 .5-1.5-1.5.2-2.9.4-4.4.6-.6.1-1.2.4-1.6.8-.5.4-.9.9-1.2 1.5-.8 1.8-1.5 3.6-2.3 5.3-.3.4-.3.9 0 1.4.4.3.9.4 1.4.3z"/><path d="m120.6 75.6c1.2-.1 2.5-.2 3.7-.3.6 0 1.2-.3 1.7-.7s.8-.9.8-1.5c.5-2.4.9-4.9 1.4-7.3l-2.3.2c-.5 2.2-1 4.4-1.5 6.6-.1.3-.3.6-.7.6l-1.6.1c-.4 0-.5-.1-.4-.5.6-2.2 1-4.4 1.6-6.6l-2.3.2c-.7 2.4-1.3 4.9-2 7.4-.2.4-.1 1 .2 1.4.3.3.9.5 1.4.4z"/><path d="m130.7 72.7-2.2.1c-.1.7-.2 1.4-.4 2.1 1.1-.1 2.2-.1 3.4-.2.6 0 1.2-.2 1.7-.6.4-.4.7-.9.8-1.4.2-2.4.4-4.8.7-7.3-.8 0-1.6 0-2.3.1-.3 2.2-.6 4.4-.8 6.6-.3.4-.6.7-.9.6 0 .1 0 .1 0 0z"/><path d="m165.2 69.1c.8 2.4 1.7 4.7 2.6 7l2.7.4c-.9-2.4-1.9-4.7-2.8-7.1l2.5.3-.3-.6-.6-1.5c-2.4-.4-4.9-.7-7.3-1 .2.7.5 1.4.7 2.2.8.1 1.6.2 2.5.3z"/><path d="m138.3 65.4c-.9 2.7-1.9 5.3-3 8 0 .4 0 .7-.1 1.1l2.6-.1c.1-.5.3-1 .4-1.6h2.9c.1.5.2 1 .4 1.6h2.7c0-.4 0-.7-.1-1.1-1-2.7-2-5.3-2.9-8-.9.1-1.9.1-2.9.1zm.5 5.5c.3-1.1.6-2.3.9-3.4h.1c.3 1.1.5 2.3.8 3.4z"/><path d="m151.7 74.8 2.7.2c0-.3 0-.7-.1-1-.7-.8-1.4-1.7-2.1-2.5h.1c.2-.1.4-.2.6-.4.2-.3.3-.7.2-1.1-.1-.7-.3-1.4-.4-2.1-.1-.6-.4-1.1-.8-1.5s-.9-.6-1.5-.6c-1.7-.1-3.4-.2-5.1-.2.2 3 .4 6 .7 9.1l2.6.1c-.1-1-.2-2.1-.3-3.1h1.3c.8 1 1.5 2 2.1 3.1zm-3.5-5.4c0-.6-.1-1.1-.2-1.7l1.9.1c.3 0 .6.2.6.6 0 .2.1.4.1.6s-.1.5-.5.5c-.6 0-1.2-.1-1.9-.1z"/><path d="m155.8 73.9c0 .4.1.7.1 1.1 0 0 1.8.1 2.7.2 0-.5 0-1 0-1.5 1 .1 1.9.2 2.9.3l.8 1.6 2.7.3c-.1-.4-.2-.8-.4-1.1-1.7-2.8-3.4-5.6-5-8.3l-3.1-.3c-.3 2.5-.5 5.1-.7 7.7zm2.8-5.6c.6 1.2 1.2 2.4 1.8 3.6l-1.8-.2c0-1.1 0-2.3-.1-3.4z"/><path d="m159.5 62.5-18.6-25.3-18.6 25.3c5.4-.5 11.8-.9 18.6-.9 6.8.1 13.2.4 18.6.9z"/></g><path d="m159.9 131.8c1.4.9 2.8 1.7 4.1 2.6-7.7-.5-17.3-.8-23.1-.8s-15.4.3-23.1.8c1.4-.9 2.7-1.8 4.1-2.6-13.4 2.2-40.9 6.2-40.9 6.2s20.3-.6 29.8-1.6c-1.6.9-3.3 1.9-4.9 2.8 11.6-1.1 26.2-1.7 35-1.7s23.4.6 35 1.7c-1.6-1-3.2-1.9-4.9-2.8 9.5 1 29.8 1.6 29.8 1.6s-27.6-4-40.9-6.2z" fill="#fff"/><path d="m116.2 86.5c0 .2-4.9 29.1-4.9 29.2 1-.1 3.8-.4 5-.5s5-.4 5-.4l3-29c.5 0 2.7-.2 3.2-.2s3-.1 3.2-.2c0-.6.4-6.1.4-6.7-8.7.2-20 1.7-20 1.7-.1.6-.6 2.6-.7 3.4-.2.9-.7 3.2-.7 3.4l3.2-.4z" fill="#fff"/><path d="m162.9 115.6 4.9.6c0-.1-2.9-16.3-2.9-16.3l10.7 17.3c.2 0 3.5.6 4.7.8s4.1.7 4.7.9c0-.1-9.6-33.7-10.5-36.7l-3.9-.7c-.7-.1-3.2-.5-3.9-.6.3 1.3 3.6 15.5 3.6 15.9-.1-.2-9.1-16-9.5-16.7l-3.7-.4-3.7-.3c.3 2.6 4.4 35.8 4.4 35.9.9-.1 3.8.2 5.1.3z" fill="#fff"/><path d="m90.5 118.9s5.8-1.1 9.7-1.7c0-.1 8.4-35.8 8.5-36.3-3.3.5-7.5 1.3-7.5 1.3-.3 1-10.7 36.6-10.7 36.7z" fill="#fff"/><path d="m98.8 82.6c.1-.2 2-6.6 2.1-6.9-7.4 1.4-18.7 4.8-18.7 4.8-.1.2-2.9 6.4-3.2 7.1.5-.2 5.5-1.5 6-1.7 0 .1-15.4 37.8-15.5 38s6.8-1.9 10.4-2.7l12.7-37.2s5.6-1.3 6.2-1.4z" fill="#fff"/><path d="m207.9 112.9c-1.5-3.4-2-4.3-2-4.3-1.1-1.9-2.5-3.7-4.1-5.2-1.2-1.1-2.5-2.1-3.8-3.1l-8.1-6.2c-.5-.4-.9-.8-1.2-1.3 0-.1-.1-.2-.2-.4s-2.8-7.7-2.9-7.8l2.7.7c.4.1.8.4 1 .8l1.7 4.3 10.1 7.4-.1-.1-4.4-10.1c-.9-2.3-2.3-4.3-4.1-5.9-1.8-1.7-4.1-2.9-6.5-3.4l-10.3-2.4s3.1 9.9 4.3 13.9c0 0 .6 1.9.8 2.4 1 2.1 2.4 3.9 4.2 5.4.9.8 1.8 1.5 2.8 2.1.4.3 7.6 5.7 8.4 6.1.8.5 1.4 1.3 1.7 2.2l3 7.7-3.6-1c-.4-.1-.8-.4-1-.8 0 0-1.5-4-1.6-4.4l-10.7-7.4s3 9.6 3.3 10.8c.6 2 1.8 3.7 3.4 5 1.5 1.3 3.3 2.3 5.1 2.9 1.7.6 3.3 1.2 5.1 1.6 3.2.9 12.7 3.6 13 3.7-.1 0-4.6-9.9-6-13.2z" fill="#fff"/><path d="m147.3 78.7c-2.3-.1-4.6-.1-6.6-.1-2.4 0-6.3.1-6.3.1-.4 2.2-6.5 34.9-6.7 35.8 0 0 5.9-.2 10.1-.2l.7-7.8 5.1.1c.1.6 1.2 7.9 1.2 8s5.6.2 10.1.5c0-.3-7.6-36.3-7.6-36.4zm-4.5 20.6-3.6-.1 1.5-14.8z" fill="#fff"/></svg>